<svg xmlns="http://www.w3.org/2000/svg" xmlns:svg="http://www.w3.org/2000/svg" xmlns:xlink="http://www.w3.org/1999/xlink" id="svg2" width="32" height="32" version="1.0"><metadata id="metadata371"/><defs id="defs4"><linearGradient id="linearGradient4689"><stop style="stop-color:#5a9fd4;stop-opacity:1" id="stop4691" offset="0"/><stop style="stop-color:#306998;stop-opacity:1" id="stop4693" offset="1"/></linearGradient><linearGradient id="linearGradient4355" x1="12.797" x2="27.519" y1="13.227" y2="31.017" gradientTransform="matrix(0.94210934,0,0,0.94210934,1.2341389,2.7751101)" gradientUnits="userSpaceOnUse" xlink:href="#linearGradient4689"/><linearGradient id="linearGradient4357" x1="12.797" x2="27.519" y1="13.227" y2="31.017" gradientTransform="matrix(0.94210934,0,0,0.94210934,1.2341389,2.7751101)" gradientUnits="userSpaceOnUse" xlink:href="#linearGradient4689"/><linearGradient id="linearGradient3720" x1="187.33" x2="393.256" y1="618.221" y2="867.048" gradientTransform="matrix(0.04569196,0,0,0.04569196,1.6101549,-10.796096)" gradientUnits="userSpaceOnUse" xlink:href="#linearGradient4689"/><linearGradient id="linearGradient3266" x1="323.06" x2="147.689" y1="147.101" y2="293.003" gradientUnits="userSpaceOnUse" xlink:href="#linearGradient4689-6"/><linearGradient id="linearGradient4689-6"><stop style="stop-color:#5a9fd4;stop-opacity:1" id="stop4691-3" offset="0"/><stop style="stop-color:#306998;stop-opacity:1" id="stop4693-8" offset="1"/></linearGradient><linearGradient id="linearGradient3256" x1="486.5" x2="496.169" y1="184.541" y2="248.363" gradientUnits="userSpaceOnUse" xlink:href="#linearGradient4689-6"/><linearGradient id="linearGradient3254" x1="486.5" x2="496.169" y1="184.541" y2="248.363" gradientUnits="userSpaceOnUse" xlink:href="#linearGradient4689-6"/><linearGradient id="linearGradient3260" x1="485.78" x2="496.889" y1="185.981" y2="249.083" gradientUnits="userSpaceOnUse" xlink:href="#linearGradient4689-6"/><linearGradient id="linearGradient3258" x1="485.78" x2="496.889" y1="185.981" y2="249.083" gradientUnits="userSpaceOnUse" xlink:href="#linearGradient4689-6"/><linearGradient id="linearGradient3264" x1="484.34" x2="495.449" y1="182.381" y2="243.323" gradientUnits="userSpaceOnUse" xlink:href="#linearGradient4689-6"/><linearGradient id="linearGradient3262" x1="484.34" x2="495.449" y1="182.381" y2="243.323" gradientUnits="userSpaceOnUse" xlink:href="#linearGradient4689-6"/><linearGradient id="linearGradient3174" x1="486.5" x2="496.169" y1="184.541" y2="248.363" gradientUnits="userSpaceOnUse" xlink:href="#linearGradient4689-6"/><linearGradient id="linearGradient3176" x1="486.5" x2="496.169" y1="184.541" y2="248.363" gradientUnits="userSpaceOnUse" xlink:href="#linearGradient4689-6"/><linearGradient id="linearGradient3178" x1="485.78" x2="496.889" y1="185.981" y2="249.083" gradientUnits="userSpaceOnUse" xlink:href="#linearGradient4689-6"/><linearGradient id="linearGradient3180" x1="485.78" x2="496.889" y1="185.981" y2="249.083" gradientUnits="userSpaceOnUse" xlink:href="#linearGradient4689-6"/><linearGradient id="linearGradient3182" x1="484.34" x2="495.449" y1="182.381" y2="243.323" gradientUnits="userSpaceOnUse" xlink:href="#linearGradient4689-6"/><linearGradient id="linearGradient3184" x1="484.34" x2="495.449" y1="182.381" y2="243.323" gradientUnits="userSpaceOnUse" xlink:href="#linearGradient4689-6"/><linearGradient id="linearGradient3186" x1="323.06" x2="147.689" y1="147.101" y2="293.003" gradientUnits="userSpaceOnUse" xlink:href="#linearGradient4689-6"/><linearGradient id="linearGradient3314" x1="116.743" x2="190.064" y1="62.911" y2="149.744" gradientTransform="matrix(0.14130513,0,0,0.14130513,-7.8428899,8.0251755)" gradientUnits="userSpaceOnUse" xlink:href="#linearGradient4328"/><linearGradient id="linearGradient4328"><stop id="stop4330" offset="0" style="stop-color:#fab434;stop-opacity:1"/><stop id="stop4332" offset="1" style="stop-color:#fb9143;stop-opacity:1"/></linearGradient><linearGradient id="linearGradient3316" x1="116.743" x2="190.064" y1="62.911" y2="149.744" gradientTransform="matrix(0.14130513,0,0,0.14130513,-5.8855851,8.0251755)" gradientUnits="userSpaceOnUse" xlink:href="#linearGradient4328"/></defs><path style="fill:#fff;stroke:none;stroke-width:1px;stroke-linecap:butt;stroke-linejoin:miter;stroke-opacity:1" id="path2939" d="M 4,31 4,1 21.957779,1.0144872 28,7 28,31 4,31 z"/><path style="font-size:medium;font-style:normal;font-variant:normal;font-weight:400;font-stretch:normal;text-indent:0;text-align:start;text-decoration:none;line-height:normal;letter-spacing:normal;word-spacing:normal;text-transform:none;direction:ltr;block-progression:tb;writing-mode:lr-tb;text-anchor:start;color:#000;fill:#7d7d7d;fill-opacity:1;fill-rule:nonzero;stroke:none;stroke-width:.99363834;marker:none;visibility:visible;display:inline;overflow:visible;enable-background:accumulate;font-family:Sans;-inkscape-font-specification:Sans" id="path4338-1" d="M 3,0 3,32 29,32 29,6.5881566 22.494212,0 3,0 z m 18,1 0,7 7,0 0,23 L 4,31 4,1 21,1 z m 1,0 6,6 -6,0 0,-6 z"/><path id="path3277" style="font-style:normal;font-variant:normal;font-weight:400;font-stretch:normal;font-size:267.69692993px;line-height:125%;font-family:'Droid Sans';-inkscape-font-specification:'Droid Sans';letter-spacing:0;word-spacing:0;fill:url(#linearGradient3316);fill-opacity:1;stroke:#000;stroke-width:.08421666;stroke-miterlimit:4;stroke-dasharray:none;stroke-opacity:1" d="m 5.9182142,16.390066 2.4853226,0 6.0488362,11.412381 0,-11.412381 1.790894,0 0,13.641861 -2.485322,0 -6.0488362,-11.412381 0,11.412381 -1.7908946,0 0,-13.641861"/><path id="path3279" style="font-style:normal;font-variant:normal;font-weight:400;font-stretch:normal;font-size:267.69692993px;line-height:125%;font-family:'Droid Sans';-inkscape-font-specification:'Droid Sans';letter-spacing:0;word-spacing:0;fill:url(#linearGradient3314);fill-opacity:1;stroke:#000;stroke-width:.08421666;stroke-miterlimit:4;stroke-dasharray:none;stroke-opacity:1" d="m 25.232346,24.924225 c -9e-6,-1.236564 -0.255851,-2.205107 -0.767526,-2.905635 -0.505601,-0.706602 -1.203074,-1.059908 -2.092423,-1.059917 -0.889361,9e-6 -1.589879,0.353315 -2.101559,1.059917 -0.505597,0.700528 -0.758392,1.669071 -0.758389,2.905635 -3e-6,1.236573 0.252792,2.208163 0.758389,2.914771 0.51168,0.700521 1.212198,1.050781 2.101559,1.05078 0.889349,10e-7 1.586822,-0.350259 2.092423,-1.05078 0.511675,-0.706608 0.767517,-1.678198 0.767526,-2.914771 m -5.719897,-3.572652 c 0.353302,-0.609138 0.797979,-1.059907 1.334033,-1.352307 0.542137,-0.298472 1.187833,-0.447713 1.93709,-0.447724 1.242653,1.1e-5 2.250792,0.49342 3.024418,1.480229 0.779699,0.986827 1.169553,2.284311 1.169564,3.892454 -1.1e-5,1.608153 -0.389865,2.905636 -1.169564,3.892453 -0.773626,0.98682 -1.781765,1.480229 -3.024418,1.480229 -0.749257,0 -1.394953,-0.146195 -1.93709,-0.438586 -0.536054,-0.298482 -0.980731,-0.752296 -1.334033,-1.361445 l 0,1.535051 -1.690385,0 0,-14.217506 1.690385,0 0,5.537152"/><text id="text4334" x="5.859" y="13.264" style="font-style:normal;font-variant:normal;font-weight:400;font-stretch:normal;font-size:6.92461967px;line-height:125%;font-family:'Myriad Pro';-inkscape-font-specification:'Myriad Pro';letter-spacing:0;word-spacing:0;fill:#4d4d4d;fill-opacity:1;stroke:none;stroke-width:1px;stroke-linecap:butt;stroke-linejoin:miter;stroke-opacity:1" xml:space="preserve"><tspan id="tspan4336" x="5.859" y="13.264">Jupyter</tspan></text></svg>