<svg xmlns="http://www.w3.org/2000/svg" xmlns:svg="http://www.w3.org/2000/svg" xmlns:xlink="http://www.w3.org/1999/xlink" id="svg2" width="24" height="24" version="1.0"><metadata id="metadata371"/><defs id="defs4"><linearGradient id="linearGradient4167"><stop id="stop4169" offset="0" style="stop-color:#fab434;stop-opacity:1"/><stop id="stop4171" offset="1" style="stop-color:#fb9143;stop-opacity:1"/></linearGradient><linearGradient id="linearGradient4689-7"><stop style="stop-color:#5a9fd4;stop-opacity:1" id="stop4691-6" offset="0"/><stop style="stop-color:#306998;stop-opacity:1" id="stop4693-4" offset="1"/></linearGradient><linearGradient id="linearGradient4689-3"><stop style="stop-color:#5a9fd4;stop-opacity:1" id="stop4691-8" offset="0"/><stop style="stop-color:#306998;stop-opacity:1" id="stop4693-0" offset="1"/></linearGradient><linearGradient id="linearGradient3382" x1="116.743" x2="190.064" y1="62.911" y2="149.744" gradientTransform="matrix(0.10331077,0,0,0.10331077,-4.3899917,5.891698)" gradientUnits="userSpaceOnUse" xlink:href="#linearGradient4167"/><linearGradient id="linearGradient3385" x1="116.743" x2="190.064" y1="62.911" y2="149.744" gradientTransform="matrix(0.0933059,0,0,0.0933059,-2.6120135,7.4686107)" gradientUnits="userSpaceOnUse" xlink:href="#linearGradient4167"/></defs><path style="fill:#fff;stroke:none" id="path3956" d="M 3,23 3,1 19,1 22,4 22,23 3,23"/><path style="font-size:medium;font-style:normal;font-variant:normal;font-weight:400;font-stretch:normal;text-indent:0;text-align:start;text-decoration:none;line-height:normal;letter-spacing:normal;word-spacing:normal;text-transform:none;direction:ltr;block-progression:tb;writing-mode:lr-tb;text-anchor:start;color:#000;fill:#7d7d7d;fill-opacity:1;fill-rule:nonzero;stroke:none;stroke-width:.99363834;marker:none;visibility:visible;display:inline;overflow:visible;enable-background:accumulate;font-family:Sans;-inkscape-font-specification:Sans" id="path4338" d="M 2,0 2,24 23,24 23.03125,3.5625 19.34375,0.03125 2,0 z m 16,1 0,4 4,0 0,18 L 3,23 3,1 18,1 z m 1,0 3,3 -3,0 0,-3 z"/><path style="fill:#4d4d4d;fill-opacity:1;fill-rule:evenodd" id="_92110424" d="m 9.0631018,3.9984663 0,3.9686017 -1.0252408,0 0.00592,-1.0012742 -1.0164801,-0.010113 0,2.0113872 3.0000001,0 0,-4.9686017 z"/><path id="_92100232" d="m 11.019015,6.0000004 0,4.9999996 1,0 0,-2 2,0 0,-2.9999996 -3,0 z m 1,1 1,0 0,1 -1,0 0,-1 z" class="fil1" style="fill:#4d4d4d;fill-opacity:1;fill-rule:evenodd"/><path id="path3329" style="font-size:12.35648537px;font-style:normal;font-variant:normal;font-weight:400;font-stretch:normal;line-height:125%;letter-spacing:0;word-spacing:0;fill:url(#linearGradient3385);fill-opacity:1;stroke:none;font-family:Droid Sans;-inkscape-font-specification:Droid Sans" d="m 5.969491,13 0.9967434,0.990704 4.0032566,6.537137 0,-7.527841 L 12,12.9921 12,22.000026 10.969491,22 9.9775096,21.079451 5.969491,14.435247 l 0,7.564753 -1,0 0,-9"/><path id="path3331" style="font-size:12.35648537px;font-style:normal;font-variant:normal;font-weight:400;font-stretch:normal;line-height:125%;letter-spacing:0;word-spacing:0;fill:url(#linearGradient3382);fill-opacity:1;stroke:none;font-family:Droid Sans;-inkscape-font-specification:Droid Sans" d="m 19.387284,18.246903 c -7e-6,-0.904074 -0.187059,-1.612194 -0.561153,-2.124362 -0.369654,-0.51661 -0.879589,-0.774918 -1.529808,-0.774925 -0.650228,7e-6 -1.162391,0.258315 -1.536489,0.774925 -0.369651,0.512168 -0.554474,1.220288 -0.554472,2.124362 -2e-6,0.904082 0.184821,1.614428 0.554472,2.131043 0.374098,0.512164 0.886261,0.768246 1.536489,0.768244 0.650219,2e-6 1.160154,-0.25608 1.529808,-0.768244 0.374094,-0.516615 0.561146,-1.226961 0.561153,-2.131043 M 14.969491,16 c 0.258306,-0.578575 0.819288,-1.140045 1.211207,-1.353824 0.396366,-0.218219 0.868446,-0.327332 1.416242,-0.32734 0.908526,8e-6 1.645595,0.360749 2.211207,1.082222 0.570052,0.721488 0.855082,1.670102 0.85509,2.845845 -8e-6,1.175751 -0.285038,2.124364 -0.85509,2.845844 -0.565612,0.721482 -1.302681,1.082223 -2.211207,1.082223 -0.547796,0 -1.019876,-0.106881 -1.416242,-0.320658 C 15.788779,21.636086 15.227797,21.44536 14.969491,21 l 0,1 -1,0 0,-10 1,0 0,3"/><path style="fill:#4d4d4d;fill-opacity:1;fill-rule:evenodd" id="path3433" d="m 15.016466,5.983534 0,2.0072866 0,0.9927134 1,0 1,0 0,1 -2,0 0,1 1,0 1,0 1,0 0,-1 0,-1 0,-1 0,-1 0,-1 -1,0 0,2 -1,0 0,-2 -1,0 z m 2,5 0,0 z"/></svg>